<mxfile host="app.diagrams.net" modified="2023-08-31T12:43:11.414Z" agent="Mozilla/5.0 (Windows NT 10.0; Win64; x64) AppleWebKit/537.36 (KHTML, like Gecko) Chrome/116.0.0.0 Safari/537.36" etag="CkVQfdic7BNyPTL2GFia" version="21.7.1" type="github">
  <diagram name="Página-1" id="x5l3PzwX7CA_4E-KJJXN">
    <mxGraphModel dx="2261" dy="751" grid="1" gridSize="10" guides="1" tooltips="1" connect="1" arrows="1" fold="1" page="1" pageScale="1" pageWidth="827" pageHeight="1169" math="0" shadow="0">
      <root>
        <mxCell id="0" />
        <mxCell id="1" parent="0" />
        <mxCell id="loXoJDMAcAeK_jXTxUno-3" style="edgeStyle=orthogonalEdgeStyle;rounded=0;orthogonalLoop=1;jettySize=auto;html=1;entryX=0.506;entryY=-0.066;entryDx=0;entryDy=0;entryPerimeter=0;" parent="1" source="loXoJDMAcAeK_jXTxUno-1" target="loXoJDMAcAeK_jXTxUno-2" edge="1">
          <mxGeometry relative="1" as="geometry" />
        </mxCell>
        <mxCell id="loXoJDMAcAeK_jXTxUno-1" value="usuario" style="shape=umlActor;verticalLabelPosition=bottom;verticalAlign=top;html=1;outlineConnect=0;" parent="1" vertex="1">
          <mxGeometry x="100" y="250" width="30" height="60" as="geometry" />
        </mxCell>
        <mxCell id="loXoJDMAcAeK_jXTxUno-5" style="edgeStyle=orthogonalEdgeStyle;rounded=0;orthogonalLoop=1;jettySize=auto;html=1;entryX=0.5;entryY=0;entryDx=0;entryDy=0;" parent="1" source="loXoJDMAcAeK_jXTxUno-2" target="loXoJDMAcAeK_jXTxUno-4" edge="1">
          <mxGeometry relative="1" as="geometry" />
        </mxCell>
        <mxCell id="loXoJDMAcAeK_jXTxUno-2" value="biblioteca" style="rounded=1;whiteSpace=wrap;html=1;" parent="1" vertex="1">
          <mxGeometry x="55" y="410" width="120" height="60" as="geometry" />
        </mxCell>
        <mxCell id="loXoJDMAcAeK_jXTxUno-7" style="edgeStyle=orthogonalEdgeStyle;rounded=0;orthogonalLoop=1;jettySize=auto;html=1;" parent="1" source="loXoJDMAcAeK_jXTxUno-4" target="loXoJDMAcAeK_jXTxUno-6" edge="1">
          <mxGeometry relative="1" as="geometry" />
        </mxCell>
        <mxCell id="loXoJDMAcAeK_jXTxUno-4" value="acessar biblioteca&amp;nbsp;" style="rounded=1;whiteSpace=wrap;html=1;" parent="1" vertex="1">
          <mxGeometry x="55" y="555" width="120" height="60" as="geometry" />
        </mxCell>
        <mxCell id="loXoJDMAcAeK_jXTxUno-11" style="edgeStyle=orthogonalEdgeStyle;rounded=0;orthogonalLoop=1;jettySize=auto;html=1;entryX=0.5;entryY=1;entryDx=0;entryDy=0;" parent="1" source="loXoJDMAcAeK_jXTxUno-6" target="loXoJDMAcAeK_jXTxUno-8" edge="1">
          <mxGeometry relative="1" as="geometry" />
        </mxCell>
        <mxCell id="loXoJDMAcAeK_jXTxUno-15" style="edgeStyle=orthogonalEdgeStyle;rounded=0;orthogonalLoop=1;jettySize=auto;html=1;entryX=0;entryY=0.5;entryDx=0;entryDy=0;" parent="1" source="loXoJDMAcAeK_jXTxUno-6" target="loXoJDMAcAeK_jXTxUno-9" edge="1">
          <mxGeometry relative="1" as="geometry" />
        </mxCell>
        <mxCell id="loXoJDMAcAeK_jXTxUno-6" value="caso" style="rhombus;whiteSpace=wrap;html=1;" parent="1" vertex="1">
          <mxGeometry x="290" y="545" width="80" height="80" as="geometry" />
        </mxCell>
        <mxCell id="loXoJDMAcAeK_jXTxUno-13" style="edgeStyle=orthogonalEdgeStyle;rounded=0;orthogonalLoop=1;jettySize=auto;html=1;" parent="1" source="loXoJDMAcAeK_jXTxUno-8" target="loXoJDMAcAeK_jXTxUno-12" edge="1">
          <mxGeometry relative="1" as="geometry" />
        </mxCell>
        <mxCell id="loXoJDMAcAeK_jXTxUno-8" value="fazer cadastro" style="rounded=1;whiteSpace=wrap;html=1;" parent="1" vertex="1">
          <mxGeometry x="270" y="400" width="120" height="60" as="geometry" />
        </mxCell>
        <mxCell id="loXoJDMAcAeK_jXTxUno-37" style="edgeStyle=orthogonalEdgeStyle;rounded=0;orthogonalLoop=1;jettySize=auto;html=1;entryX=0.5;entryY=0;entryDx=0;entryDy=0;" parent="1" source="loXoJDMAcAeK_jXTxUno-9" target="loXoJDMAcAeK_jXTxUno-18" edge="1">
          <mxGeometry relative="1" as="geometry" />
        </mxCell>
        <mxCell id="loXoJDMAcAeK_jXTxUno-9" value="fazer login" style="rounded=1;whiteSpace=wrap;html=1;" parent="1" vertex="1">
          <mxGeometry x="460" y="555" width="120" height="60" as="geometry" />
        </mxCell>
        <mxCell id="loXoJDMAcAeK_jXTxUno-16" style="edgeStyle=orthogonalEdgeStyle;rounded=0;orthogonalLoop=1;jettySize=auto;html=1;entryX=0.5;entryY=0;entryDx=0;entryDy=0;" parent="1" source="loXoJDMAcAeK_jXTxUno-12" target="loXoJDMAcAeK_jXTxUno-9" edge="1">
          <mxGeometry relative="1" as="geometry" />
        </mxCell>
        <mxCell id="loXoJDMAcAeK_jXTxUno-12" value="email,senha ,telefone, endereço e cpf" style="rounded=1;whiteSpace=wrap;html=1;" parent="1" vertex="1">
          <mxGeometry x="270" y="250" width="120" height="60" as="geometry" />
        </mxCell>
        <mxCell id="loXoJDMAcAeK_jXTxUno-55" style="edgeStyle=orthogonalEdgeStyle;rounded=0;orthogonalLoop=1;jettySize=auto;html=1;" parent="1" source="loXoJDMAcAeK_jXTxUno-18" target="loXoJDMAcAeK_jXTxUno-38" edge="1">
          <mxGeometry relative="1" as="geometry" />
        </mxCell>
        <mxCell id="loXoJDMAcAeK_jXTxUno-18" value="Alugar livro" style="rounded=1;whiteSpace=wrap;html=1;" parent="1" vertex="1">
          <mxGeometry x="460" y="690" width="120" height="60" as="geometry" />
        </mxCell>
        <mxCell id="loXoJDMAcAeK_jXTxUno-112" style="edgeStyle=orthogonalEdgeStyle;rounded=0;orthogonalLoop=1;jettySize=auto;html=1;entryX=0.5;entryY=0;entryDx=0;entryDy=0;" parent="1" source="loXoJDMAcAeK_jXTxUno-38" target="loXoJDMAcAeK_jXTxUno-40" edge="1">
          <mxGeometry relative="1" as="geometry" />
        </mxCell>
        <mxCell id="loXoJDMAcAeK_jXTxUno-38" value="Catálogo de livros" style="rounded=1;whiteSpace=wrap;html=1;" parent="1" vertex="1">
          <mxGeometry x="55" y="690" width="120" height="60" as="geometry" />
        </mxCell>
        <mxCell id="loXoJDMAcAeK_jXTxUno-45" style="edgeStyle=orthogonalEdgeStyle;rounded=0;orthogonalLoop=1;jettySize=auto;html=1;entryX=0.5;entryY=0;entryDx=0;entryDy=0;" parent="1" source="loXoJDMAcAeK_jXTxUno-40" target="loXoJDMAcAeK_jXTxUno-44" edge="1">
          <mxGeometry relative="1" as="geometry" />
        </mxCell>
        <mxCell id="loXoJDMAcAeK_jXTxUno-40" value="escolher livro" style="rounded=1;whiteSpace=wrap;html=1;" parent="1" vertex="1">
          <mxGeometry x="55" y="810" width="120" height="60" as="geometry" />
        </mxCell>
        <mxCell id="loXoJDMAcAeK_jXTxUno-44" value="verificar disponibilidade" style="rounded=1;whiteSpace=wrap;html=1;" parent="1" vertex="1">
          <mxGeometry x="55" y="940" width="120" height="60" as="geometry" />
        </mxCell>
        <mxCell id="loXoJDMAcAeK_jXTxUno-57" style="edgeStyle=orthogonalEdgeStyle;rounded=0;orthogonalLoop=1;jettySize=auto;html=1;" parent="1" source="loXoJDMAcAeK_jXTxUno-49" target="loXoJDMAcAeK_jXTxUno-56" edge="1">
          <mxGeometry relative="1" as="geometry" />
        </mxCell>
        <mxCell id="loXoJDMAcAeK_jXTxUno-49" value="indisponivel" style="rounded=1;whiteSpace=wrap;html=1;" parent="1" vertex="1">
          <mxGeometry x="55" y="1200" width="120" height="60" as="geometry" />
        </mxCell>
        <mxCell id="loXoJDMAcAeK_jXTxUno-64" value="" style="edgeStyle=orthogonalEdgeStyle;rounded=0;orthogonalLoop=1;jettySize=auto;html=1;" parent="1" source="loXoJDMAcAeK_jXTxUno-50" target="loXoJDMAcAeK_jXTxUno-63" edge="1">
          <mxGeometry relative="1" as="geometry" />
        </mxCell>
        <mxCell id="loXoJDMAcAeK_jXTxUno-50" value="disponivel" style="rounded=1;whiteSpace=wrap;html=1;" parent="1" vertex="1">
          <mxGeometry x="390" y="1070" width="120" height="60" as="geometry" />
        </mxCell>
        <mxCell id="loXoJDMAcAeK_jXTxUno-52" value="" style="edgeStyle=orthogonalEdgeStyle;rounded=0;orthogonalLoop=1;jettySize=auto;html=1;" parent="1" source="loXoJDMAcAeK_jXTxUno-44" target="loXoJDMAcAeK_jXTxUno-51" edge="1">
          <mxGeometry relative="1" as="geometry">
            <mxPoint x="115" y="1020" as="sourcePoint" />
            <mxPoint x="220" y="1100" as="targetPoint" />
            <Array as="points" />
          </mxGeometry>
        </mxCell>
        <mxCell id="loXoJDMAcAeK_jXTxUno-53" style="edgeStyle=orthogonalEdgeStyle;rounded=0;orthogonalLoop=1;jettySize=auto;html=1;entryX=0.5;entryY=0;entryDx=0;entryDy=0;" parent="1" source="loXoJDMAcAeK_jXTxUno-51" target="loXoJDMAcAeK_jXTxUno-49" edge="1">
          <mxGeometry relative="1" as="geometry" />
        </mxCell>
        <mxCell id="loXoJDMAcAeK_jXTxUno-114" style="edgeStyle=orthogonalEdgeStyle;rounded=0;orthogonalLoop=1;jettySize=auto;html=1;" parent="1" source="loXoJDMAcAeK_jXTxUno-51" target="loXoJDMAcAeK_jXTxUno-50" edge="1">
          <mxGeometry relative="1" as="geometry" />
        </mxCell>
        <mxCell id="loXoJDMAcAeK_jXTxUno-51" value="caso" style="rhombus;whiteSpace=wrap;html=1;" parent="1" vertex="1">
          <mxGeometry x="75" y="1060" width="80" height="80" as="geometry" />
        </mxCell>
        <mxCell id="loXoJDMAcAeK_jXTxUno-60" style="edgeStyle=orthogonalEdgeStyle;rounded=0;orthogonalLoop=1;jettySize=auto;html=1;entryX=0;entryY=0.5;entryDx=0;entryDy=0;exitX=0.442;exitY=-0.033;exitDx=0;exitDy=0;exitPerimeter=0;" parent="1" source="loXoJDMAcAeK_jXTxUno-56" target="loXoJDMAcAeK_jXTxUno-38" edge="1">
          <mxGeometry relative="1" as="geometry">
            <Array as="points">
              <mxPoint x="-150" y="938" />
              <mxPoint x="-150" y="720" />
            </Array>
          </mxGeometry>
        </mxCell>
        <mxCell id="loXoJDMAcAeK_jXTxUno-56" value="Retornar ao catalogo" style="rounded=1;whiteSpace=wrap;html=1;" parent="1" vertex="1">
          <mxGeometry x="-210" y="930" width="120" height="60" as="geometry" />
        </mxCell>
        <mxCell id="loXoJDMAcAeK_jXTxUno-66" value="" style="edgeStyle=orthogonalEdgeStyle;rounded=0;orthogonalLoop=1;jettySize=auto;html=1;" parent="1" source="loXoJDMAcAeK_jXTxUno-63" target="loXoJDMAcAeK_jXTxUno-65" edge="1">
          <mxGeometry relative="1" as="geometry" />
        </mxCell>
        <mxCell id="loXoJDMAcAeK_jXTxUno-63" value="fazer emprestimo" style="rounded=1;whiteSpace=wrap;html=1;" parent="1" vertex="1">
          <mxGeometry x="390" y="1210" width="120" height="60" as="geometry" />
        </mxCell>
        <mxCell id="loXoJDMAcAeK_jXTxUno-70" value="" style="edgeStyle=orthogonalEdgeStyle;rounded=0;orthogonalLoop=1;jettySize=auto;html=1;" parent="1" source="loXoJDMAcAeK_jXTxUno-65" target="loXoJDMAcAeK_jXTxUno-69" edge="1">
          <mxGeometry relative="1" as="geometry" />
        </mxCell>
        <mxCell id="loXoJDMAcAeK_jXTxUno-65" value="registrar data e hora do emprestimo" style="rounded=1;whiteSpace=wrap;html=1;" parent="1" vertex="1">
          <mxGeometry x="390" y="1350" width="120" height="60" as="geometry" />
        </mxCell>
        <mxCell id="loXoJDMAcAeK_jXTxUno-72" value="" style="edgeStyle=orthogonalEdgeStyle;rounded=0;orthogonalLoop=1;jettySize=auto;html=1;" parent="1" source="loXoJDMAcAeK_jXTxUno-69" target="loXoJDMAcAeK_jXTxUno-71" edge="1">
          <mxGeometry relative="1" as="geometry" />
        </mxCell>
        <mxCell id="loXoJDMAcAeK_jXTxUno-69" value="status do livro&lt;br&gt;-Emprestado" style="whiteSpace=wrap;html=1;rounded=1;" parent="1" vertex="1">
          <mxGeometry x="190" y="1350" width="120" height="60" as="geometry" />
        </mxCell>
        <mxCell id="loXoJDMAcAeK_jXTxUno-74" value="" style="edgeStyle=orthogonalEdgeStyle;rounded=0;orthogonalLoop=1;jettySize=auto;html=1;" parent="1" source="loXoJDMAcAeK_jXTxUno-71" target="loXoJDMAcAeK_jXTxUno-73" edge="1">
          <mxGeometry relative="1" as="geometry" />
        </mxCell>
        <mxCell id="loXoJDMAcAeK_jXTxUno-71" value="Gerar recibo" style="whiteSpace=wrap;html=1;rounded=1;" parent="1" vertex="1">
          <mxGeometry x="-10" y="1350" width="120" height="60" as="geometry" />
        </mxCell>
        <mxCell id="loXoJDMAcAeK_jXTxUno-76" value="" style="edgeStyle=orthogonalEdgeStyle;rounded=0;orthogonalLoop=1;jettySize=auto;html=1;" parent="1" source="loXoJDMAcAeK_jXTxUno-73" target="loXoJDMAcAeK_jXTxUno-75" edge="1">
          <mxGeometry relative="1" as="geometry" />
        </mxCell>
        <mxCell id="loXoJDMAcAeK_jXTxUno-73" value="Notificar usuario de emprestimo bem-sucedido" style="whiteSpace=wrap;html=1;rounded=1;" parent="1" vertex="1">
          <mxGeometry x="-210" y="1350" width="120" height="60" as="geometry" />
        </mxCell>
        <mxCell id="loXoJDMAcAeK_jXTxUno-78" value="" style="edgeStyle=orthogonalEdgeStyle;rounded=0;orthogonalLoop=1;jettySize=auto;html=1;" parent="1" source="loXoJDMAcAeK_jXTxUno-75" target="loXoJDMAcAeK_jXTxUno-77" edge="1">
          <mxGeometry relative="1" as="geometry" />
        </mxCell>
        <mxCell id="loXoJDMAcAeK_jXTxUno-75" value="Devolver livro" style="whiteSpace=wrap;html=1;rounded=1;" parent="1" vertex="1">
          <mxGeometry x="-210" y="1490" width="120" height="60" as="geometry" />
        </mxCell>
        <mxCell id="loXoJDMAcAeK_jXTxUno-115" style="edgeStyle=orthogonalEdgeStyle;rounded=0;orthogonalLoop=1;jettySize=auto;html=1;" parent="1" source="loXoJDMAcAeK_jXTxUno-77" target="loXoJDMAcAeK_jXTxUno-81" edge="1">
          <mxGeometry relative="1" as="geometry" />
        </mxCell>
        <mxCell id="loXoJDMAcAeK_jXTxUno-77" value="verificar codigo de barras&amp;nbsp;" style="whiteSpace=wrap;html=1;rounded=1;" parent="1" vertex="1">
          <mxGeometry x="-210" y="1630" width="120" height="60" as="geometry" />
        </mxCell>
        <mxCell id="loXoJDMAcAeK_jXTxUno-116" style="edgeStyle=orthogonalEdgeStyle;rounded=0;orthogonalLoop=1;jettySize=auto;html=1;exitX=1;exitY=0.5;exitDx=0;exitDy=0;entryX=0;entryY=0.5;entryDx=0;entryDy=0;" parent="1" source="loXoJDMAcAeK_jXTxUno-81" target="loXoJDMAcAeK_jXTxUno-82" edge="1">
          <mxGeometry relative="1" as="geometry" />
        </mxCell>
        <mxCell id="loXoJDMAcAeK_jXTxUno-117" style="edgeStyle=orthogonalEdgeStyle;rounded=0;orthogonalLoop=1;jettySize=auto;html=1;entryX=0.75;entryY=0;entryDx=0;entryDy=0;" parent="1" source="loXoJDMAcAeK_jXTxUno-81" target="loXoJDMAcAeK_jXTxUno-87" edge="1">
          <mxGeometry relative="1" as="geometry" />
        </mxCell>
        <mxCell id="loXoJDMAcAeK_jXTxUno-81" value="caso" style="rhombus;whiteSpace=wrap;html=1;" parent="1" vertex="1">
          <mxGeometry x="-60" y="1714" width="80" height="80" as="geometry" />
        </mxCell>
        <mxCell id="loXoJDMAcAeK_jXTxUno-90" value="" style="edgeStyle=orthogonalEdgeStyle;rounded=0;orthogonalLoop=1;jettySize=auto;html=1;" parent="1" source="loXoJDMAcAeK_jXTxUno-82" target="loXoJDMAcAeK_jXTxUno-89" edge="1">
          <mxGeometry relative="1" as="geometry" />
        </mxCell>
        <mxCell id="loXoJDMAcAeK_jXTxUno-82" value="livro registrado" style="rounded=1;whiteSpace=wrap;html=1;" parent="1" vertex="1">
          <mxGeometry x="160" y="1630" width="120" height="60" as="geometry" />
        </mxCell>
        <mxCell id="loXoJDMAcAeK_jXTxUno-87" value="livro nao registrado&lt;span style=&quot;white-space: pre;&quot;&gt;&#x9;&lt;/span&gt;" style="rounded=1;whiteSpace=wrap;html=1;" parent="1" vertex="1">
          <mxGeometry x="-210" y="1930" width="120" height="60" as="geometry" />
        </mxCell>
        <mxCell id="loXoJDMAcAeK_jXTxUno-100" style="edgeStyle=orthogonalEdgeStyle;rounded=0;orthogonalLoop=1;jettySize=auto;html=1;entryX=0.5;entryY=0;entryDx=0;entryDy=0;" parent="1" source="loXoJDMAcAeK_jXTxUno-89" target="loXoJDMAcAeK_jXTxUno-91" edge="1">
          <mxGeometry relative="1" as="geometry" />
        </mxCell>
        <mxCell id="loXoJDMAcAeK_jXTxUno-109" style="edgeStyle=orthogonalEdgeStyle;rounded=0;orthogonalLoop=1;jettySize=auto;html=1;" parent="1" source="loXoJDMAcAeK_jXTxUno-89" target="loXoJDMAcAeK_jXTxUno-95" edge="1">
          <mxGeometry relative="1" as="geometry" />
        </mxCell>
        <mxCell id="loXoJDMAcAeK_jXTxUno-89" value="Devolver livro" style="whiteSpace=wrap;html=1;rounded=1;" parent="1" vertex="1">
          <mxGeometry x="160" y="1770" width="120" height="60" as="geometry" />
        </mxCell>
        <mxCell id="loXoJDMAcAeK_jXTxUno-94" value="" style="edgeStyle=orthogonalEdgeStyle;rounded=0;orthogonalLoop=1;jettySize=auto;html=1;" parent="1" source="loXoJDMAcAeK_jXTxUno-91" target="loXoJDMAcAeK_jXTxUno-93" edge="1">
          <mxGeometry relative="1" as="geometry" />
        </mxCell>
        <mxCell id="loXoJDMAcAeK_jXTxUno-91" value="Pagamento" style="whiteSpace=wrap;html=1;rounded=1;" parent="1" vertex="1">
          <mxGeometry x="354" y="1910" width="120" height="60" as="geometry" />
        </mxCell>
        <mxCell id="loXoJDMAcAeK_jXTxUno-129" style="edgeStyle=orthogonalEdgeStyle;rounded=0;orthogonalLoop=1;jettySize=auto;html=1;" parent="1" source="loXoJDMAcAeK_jXTxUno-93" target="loXoJDMAcAeK_jXTxUno-123" edge="1">
          <mxGeometry relative="1" as="geometry" />
        </mxCell>
        <mxCell id="loXoJDMAcAeK_jXTxUno-93" value="Formas de pagamento" style="whiteSpace=wrap;html=1;rounded=1;" parent="1" vertex="1">
          <mxGeometry x="160" y="1910" width="120" height="60" as="geometry" />
        </mxCell>
        <mxCell id="loXoJDMAcAeK_jXTxUno-110" style="edgeStyle=orthogonalEdgeStyle;rounded=0;orthogonalLoop=1;jettySize=auto;html=1;exitX=1;exitY=0.5;exitDx=0;exitDy=0;" parent="1" source="loXoJDMAcAeK_jXTxUno-95" target="loXoJDMAcAeK_jXTxUno-96" edge="1">
          <mxGeometry relative="1" as="geometry" />
        </mxCell>
        <mxCell id="loXoJDMAcAeK_jXTxUno-95" value="caso" style="rhombus;whiteSpace=wrap;html=1;" parent="1" vertex="1">
          <mxGeometry x="374" y="1760" width="80" height="80" as="geometry" />
        </mxCell>
        <mxCell id="loXoJDMAcAeK_jXTxUno-98" value="" style="edgeStyle=orthogonalEdgeStyle;rounded=0;orthogonalLoop=1;jettySize=auto;html=1;" parent="1" source="loXoJDMAcAeK_jXTxUno-96" target="loXoJDMAcAeK_jXTxUno-97" edge="1">
          <mxGeometry relative="1" as="geometry" />
        </mxCell>
        <mxCell id="loXoJDMAcAeK_jXTxUno-96" value="Atraso" style="rounded=1;whiteSpace=wrap;html=1;" parent="1" vertex="1">
          <mxGeometry x="540" y="1770" width="120" height="60" as="geometry" />
        </mxCell>
        <mxCell id="loXoJDMAcAeK_jXTxUno-99" style="edgeStyle=orthogonalEdgeStyle;rounded=0;orthogonalLoop=1;jettySize=auto;html=1;entryX=1;entryY=0.5;entryDx=0;entryDy=0;" parent="1" source="loXoJDMAcAeK_jXTxUno-97" target="loXoJDMAcAeK_jXTxUno-91" edge="1">
          <mxGeometry relative="1" as="geometry" />
        </mxCell>
        <mxCell id="loXoJDMAcAeK_jXTxUno-97" value="Calcular multas" style="rounded=1;whiteSpace=wrap;html=1;" parent="1" vertex="1">
          <mxGeometry x="540" y="1910" width="120" height="60" as="geometry" />
        </mxCell>
        <mxCell id="loXoJDMAcAeK_jXTxUno-104" value="" style="edgeStyle=orthogonalEdgeStyle;rounded=0;orthogonalLoop=1;jettySize=auto;html=1;" parent="1" source="loXoJDMAcAeK_jXTxUno-101" target="loXoJDMAcAeK_jXTxUno-103" edge="1">
          <mxGeometry relative="1" as="geometry" />
        </mxCell>
        <mxCell id="loXoJDMAcAeK_jXTxUno-108" value="" style="edgeStyle=orthogonalEdgeStyle;rounded=0;orthogonalLoop=1;jettySize=auto;html=1;" parent="1" source="loXoJDMAcAeK_jXTxUno-101" target="loXoJDMAcAeK_jXTxUno-107" edge="1">
          <mxGeometry relative="1" as="geometry" />
        </mxCell>
        <mxCell id="loXoJDMAcAeK_jXTxUno-101" value="Gerar Recibo de Pagamento e devoluçao" style="whiteSpace=wrap;html=1;rounded=1;" parent="1" vertex="1">
          <mxGeometry x="160" y="2370" width="120" height="60" as="geometry" />
        </mxCell>
        <mxCell id="loXoJDMAcAeK_jXTxUno-106" value="" style="edgeStyle=orthogonalEdgeStyle;rounded=0;orthogonalLoop=1;jettySize=auto;html=1;" parent="1" source="loXoJDMAcAeK_jXTxUno-103" target="loXoJDMAcAeK_jXTxUno-105" edge="1">
          <mxGeometry relative="1" as="geometry" />
        </mxCell>
        <mxCell id="loXoJDMAcAeK_jXTxUno-103" value="Registrar data e horario de devoluçao" style="whiteSpace=wrap;html=1;rounded=1;" parent="1" vertex="1">
          <mxGeometry x="360" y="2370" width="120" height="60" as="geometry" />
        </mxCell>
        <mxCell id="loXoJDMAcAeK_jXTxUno-105" value="Atualizar status do livro para disponivel" style="whiteSpace=wrap;html=1;rounded=1;" parent="1" vertex="1">
          <mxGeometry x="560" y="2370" width="120" height="60" as="geometry" />
        </mxCell>
        <mxCell id="EOuBfW5uP-pjU0V1wRs9-2" value="" style="edgeStyle=orthogonalEdgeStyle;rounded=0;orthogonalLoop=1;jettySize=auto;html=1;" edge="1" parent="1" source="loXoJDMAcAeK_jXTxUno-107" target="EOuBfW5uP-pjU0V1wRs9-1">
          <mxGeometry relative="1" as="geometry" />
        </mxCell>
        <mxCell id="loXoJDMAcAeK_jXTxUno-107" value="Devoluçao bem sucedida" style="whiteSpace=wrap;html=1;rounded=1;" parent="1" vertex="1">
          <mxGeometry x="750" y="2370" width="120" height="60" as="geometry" />
        </mxCell>
        <mxCell id="loXoJDMAcAeK_jXTxUno-137" style="edgeStyle=orthogonalEdgeStyle;rounded=0;orthogonalLoop=1;jettySize=auto;html=1;entryX=0;entryY=0.5;entryDx=0;entryDy=0;entryPerimeter=0;" parent="1" source="loXoJDMAcAeK_jXTxUno-119" target="loXoJDMAcAeK_jXTxUno-132" edge="1">
          <mxGeometry relative="1" as="geometry">
            <Array as="points">
              <mxPoint x="120" y="2110" />
              <mxPoint x="120" y="2190" />
              <mxPoint x="110" y="2190" />
              <mxPoint x="110" y="2215" />
            </Array>
          </mxGeometry>
        </mxCell>
        <mxCell id="loXoJDMAcAeK_jXTxUno-119" value="cartao" style="rounded=1;whiteSpace=wrap;html=1;" parent="1" vertex="1">
          <mxGeometry x="-20" y="2080" width="120" height="60" as="geometry" />
        </mxCell>
        <mxCell id="loXoJDMAcAeK_jXTxUno-136" style="edgeStyle=orthogonalEdgeStyle;rounded=0;orthogonalLoop=1;jettySize=auto;html=1;entryX=0.503;entryY=0.4;entryDx=0;entryDy=0;entryPerimeter=0;" parent="1" source="loXoJDMAcAeK_jXTxUno-120" target="loXoJDMAcAeK_jXTxUno-132" edge="1">
          <mxGeometry relative="1" as="geometry" />
        </mxCell>
        <mxCell id="loXoJDMAcAeK_jXTxUno-120" value="dinheiro" style="rounded=1;whiteSpace=wrap;html=1;" parent="1" vertex="1">
          <mxGeometry x="170" y="2080" width="120" height="60" as="geometry" />
        </mxCell>
        <mxCell id="loXoJDMAcAeK_jXTxUno-135" style="edgeStyle=orthogonalEdgeStyle;rounded=0;orthogonalLoop=1;jettySize=auto;html=1;entryX=1;entryY=0.5;entryDx=0;entryDy=0;entryPerimeter=0;" parent="1" source="loXoJDMAcAeK_jXTxUno-121" target="loXoJDMAcAeK_jXTxUno-132" edge="1">
          <mxGeometry relative="1" as="geometry" />
        </mxCell>
        <mxCell id="loXoJDMAcAeK_jXTxUno-121" value="boleto" style="rounded=1;whiteSpace=wrap;html=1;" parent="1" vertex="1">
          <mxGeometry x="374" y="2080" width="120" height="60" as="geometry" />
        </mxCell>
        <mxCell id="loXoJDMAcAeK_jXTxUno-127" style="edgeStyle=orthogonalEdgeStyle;rounded=0;orthogonalLoop=1;jettySize=auto;html=1;entryX=0.5;entryY=0;entryDx=0;entryDy=0;" parent="1" source="loXoJDMAcAeK_jXTxUno-123" target="loXoJDMAcAeK_jXTxUno-119" edge="1">
          <mxGeometry relative="1" as="geometry" />
        </mxCell>
        <mxCell id="loXoJDMAcAeK_jXTxUno-130" style="edgeStyle=orthogonalEdgeStyle;rounded=0;orthogonalLoop=1;jettySize=auto;html=1;entryX=0.422;entryY=0.022;entryDx=0;entryDy=0;entryPerimeter=0;" parent="1" source="loXoJDMAcAeK_jXTxUno-123" target="loXoJDMAcAeK_jXTxUno-120" edge="1">
          <mxGeometry relative="1" as="geometry" />
        </mxCell>
        <mxCell id="loXoJDMAcAeK_jXTxUno-131" style="edgeStyle=orthogonalEdgeStyle;rounded=0;orthogonalLoop=1;jettySize=auto;html=1;" parent="1" source="loXoJDMAcAeK_jXTxUno-123" target="loXoJDMAcAeK_jXTxUno-121" edge="1">
          <mxGeometry relative="1" as="geometry" />
        </mxCell>
        <mxCell id="loXoJDMAcAeK_jXTxUno-123" value="" style="shape=line;html=1;strokeWidth=6;strokeColor=#ff0000;" parent="1" vertex="1">
          <mxGeometry x="120" y="2020" width="200" height="10" as="geometry" />
        </mxCell>
        <mxCell id="loXoJDMAcAeK_jXTxUno-138" style="edgeStyle=orthogonalEdgeStyle;rounded=0;orthogonalLoop=1;jettySize=auto;html=1;entryX=0.583;entryY=0.011;entryDx=0;entryDy=0;entryPerimeter=0;" parent="1" source="loXoJDMAcAeK_jXTxUno-132" target="loXoJDMAcAeK_jXTxUno-101" edge="1">
          <mxGeometry relative="1" as="geometry" />
        </mxCell>
        <mxCell id="loXoJDMAcAeK_jXTxUno-132" value="" style="shape=line;html=1;strokeWidth=6;strokeColor=#ff0000;" parent="1" vertex="1">
          <mxGeometry x="130" y="2210" width="200" height="10" as="geometry" />
        </mxCell>
        <mxCell id="EOuBfW5uP-pjU0V1wRs9-1" value="" style="ellipse;html=1;shape=endState;fillColor=#000000;strokeColor=#ff0000;" vertex="1" parent="1">
          <mxGeometry x="910" y="2385" width="30" height="30" as="geometry" />
        </mxCell>
      </root>
    </mxGraphModel>
  </diagram>
</mxfile>
